{"title":"Knockout 2011 DVDRip XviD-IGUANA -- CBTorrents.com","uid":6351415,"size":738678784,"categoryP":"video","categoryS":"movies","magnet":"?xt=urn:btih:a5f932b0c7be79fa64f6f5025e7e07ed831df2d2&amp;dn=Knockout+2011+DVDRip+XviD-IGUANA+--+CBTorrents.com&amp;tr=udp%3A%2F%2Ftracker.openbittorrent.com%3A80&amp;tr=udp%3A%2F%2Fopen.demonii.com%3A1337&amp;tr=udp%3A%2F%2Ftracker.coppersurfer.tk%3A6969&amp;tr=udp%3A%2F%2Fexodus.desync.com%3A6969","seeders":0,"leechers":0,"uploader":"ErSSP","files":2,"time":1304012820,"description":"================= Visit CBTorrents.com For More Exclusives ======================\n\nRemember to signup on CBTorrents.com Its free and give you access to more Exclusives like this.\n\n\nRipper                           : IGUANA\nFormat                           : AVI\nFile size                        : 697 MiB\nDuration                         : 1h 35mn\nOverall bit rate                 : 1 024 Kbps\n\nVideo\nFormat                           : MPEG-4 Visual\nFormat profile                   : Advanced Simple@L5\nFormat settings, BVOP            : 2\nFormat settings, QPel            : No\nFormat settings, GMC             : No warppoints\nFormat settings, Matrix          : Default (H.263)\nMuxing mode                      : Packed bitstream\nCodec ID                         : XVID\nCodec ID/Hint                    : XviD\nDuration                         : 1h 35mn\nBit rate                         : 883 Kbps\nWidth                            : 624 pixels\nHeight                           : 352 pixels\nDisplay aspect ratio             : 16:9\nFrame rate                       : 23.976 fps\nColor space                      : YUV\nChroma subsampling               : 4:2:0\nBit depth                        : 8 bits\nScan type                        : Progressive\nCompression mode                 : Lossy\nBits/(Pixel*Frame)               : 0.168\nStream size                      : 601 MiB (86%)\nWriting library                  : XviD 1.2.1 (UTC 2008-12-04)\n\nAudio\nFormat                           : MPEG Audio\nFormat version                   : Version 1\nFormat profile                   : Layer 3\nMode                             : Joint stereo\nMode extension                   : MS Stereo\nCodec ID                         : 55\nCodec ID/Hint                    : MP3\nDuration                         : 1h 35mn\nBit rate mode                    : Variable\nBit rate                         : 128 Kbps\nChannel(s)                       : 2 channels\nSampling rate                    : 48.0 KHz\nCompression mode                 : Lossy\nStream size                      : 87.5 MiB (13%)\nAlignment                        : Aligned on interleaves\nInterleave, duration             : 24 ms (0.58 video frame)\nInterleave, preload duration     : 143 ms\n\nScreens: &lt;a href=&quot;\nhttp://www.bollywoodreleases.info/images/43632915762308091097.jpg&quot; rel=&quot;nofollow&quot; target=&quot;_NEW&quot;&gt;\nhttp://www.bollywoodreleases.info/images/43632915762308091097.jpg&lt;/a&gt;\n\nSample included in torrent\n\nCredit to original Ripper\n\n\nRemember to signup on CBTorrents.com Its free and give you access to more Exclusives like this.\n\n================= Visit CBTorrents.com For More Exclusives ======================","torrent":{"xt":"urn:btih:a5f932b0c7be79fa64f6f5025e7e07ed831df2d2","amp;dn":"Knockout+2011+DVDRip+XviD-IGUANA+--+CBTorrents.com","amp;tr":["udp%3A%2F%2Ftracker.openbittorrent.com%3A80","udp%3A%2F%2Fopen.demonii.com%3A1337","udp%3A%2F%2Ftracker.coppersurfer.tk%3A6969","udp%3A%2F%2Fexodus.desync.com%3A6969"],"infoHash":"a5f932b0c7be79fa64f6f5025e7e07ed831df2d2","infoHashBuffer":{"type":"Buffer","data":[165,249,50,176,199,190,121,250,100,246,245,2,94,126,7,237,131,29,242,210]},"announce":[],"urlList":[]}}